# xmcd
#
# Track frame offsets:
#	150
#	14495
#	32270
#	48550
#	62960
#	81945
#	100337
#	116277
#	136917
#	164027
#	181620
#	200920
#	219712
#	237450
#	254237
#	277022
#	293455
#	305800
#
# Disc length: 4383 seconds
#
# Revision: 1
# Processed by: cddbd v1.5.1PL0 Copyright (c) Steve Scherf et al.
# Submitted via: CDex 1.50Beta5
#
DISCID=16111d12
DTITLE=Various Artist - フォーク オール・ザ・ベスト
DYEAR=1900
DGENRE=Folk
TTITLE0=神田川
TTITLE1=赤ちょうちん
TTITLE2=なごり雪
TTITLE3=22才の別れ
TTITLE4=妹
TTITLE5=海岸通
TTITLE6=雨の物語
TTITLE7=FOLLOW ME
TTITLE8=ほおづえをつく女
TTITLE9=海風
TTITLE10=夢一夜
TTITLE11=愛する人へ
TTITLE12=あの唄はもう唄わないのですか
TTITLE13=夏の少女
TTITLE14=いつか冷たい雨が
TTITLE15=おもかげ色の空
TTITLE16=僕の胸でおやすみ
TTITLE17=この秋に
EXTD=
EXTT0=
EXTT1=
EXTT2=
EXTT3=
EXTT4=
EXTT5=
EXTT6=
EXTT7=
EXTT8=
EXTT9=
EXTT10=
EXTT11=
EXTT12=
EXTT13=
EXTT14=
EXTT15=
EXTT16=
EXTT17=
PLAYORDER=
